<mxfile host="65bd71144e">
    <diagram id="9Jj_p-J0IWDgiWb8OYMH" name="Page-1">
        <mxGraphModel dx="787" dy="2168" grid="1" gridSize="10" guides="1" tooltips="1" connect="1" arrows="1" fold="1" page="1" pageScale="1" pageWidth="850" pageHeight="1100" math="0" shadow="0">
            <root>
                <mxCell id="0"/>
                <mxCell id="1" parent="0"/>
                <mxCell id="7" style="edgeStyle=none;html=1;exitX=1;exitY=0.5;exitDx=0;exitDy=0;entryX=0;entryY=0.5;entryDx=0;entryDy=0;fontSize=30;endArrow=block;endFill=1;endSize=15;" parent="1" source="8" target="16" edge="1">
                    <mxGeometry relative="1" as="geometry"/>
                </mxCell>
                <mxCell id="2" value="&amp;nbsp; A" style="rounded=0;whiteSpace=wrap;html=1;align=left;fontSize=30;" parent="1" vertex="1">
                    <mxGeometry x="50" y="60" width="90" height="60" as="geometry"/>
                </mxCell>
                <mxCell id="3" value="" style="ellipse;whiteSpace=wrap;html=1;aspect=fixed;" parent="1" vertex="1">
                    <mxGeometry x="100" y="75" width="30" height="30" as="geometry"/>
                </mxCell>
                <mxCell id="4" value="&amp;nbsp; B" style="rounded=0;whiteSpace=wrap;html=1;align=left;fontSize=30;" parent="1" vertex="1">
                    <mxGeometry x="50" y="350" width="90" height="60" as="geometry"/>
                </mxCell>
                <mxCell id="5" value="" style="ellipse;whiteSpace=wrap;html=1;aspect=fixed;" parent="1" vertex="1">
                    <mxGeometry x="100" y="365" width="30" height="30" as="geometry"/>
                </mxCell>
                <mxCell id="6" value="" style="rounded=0;whiteSpace=wrap;html=1;align=left;fontSize=30;" parent="1" vertex="1">
                    <mxGeometry x="190" y="60" width="130" height="60" as="geometry"/>
                </mxCell>
                <mxCell id="8" value="" style="ellipse;whiteSpace=wrap;html=1;aspect=fixed;" parent="1" vertex="1">
                    <mxGeometry x="280" y="75" width="30" height="30" as="geometry"/>
                </mxCell>
                <mxCell id="9" value=".x" style="rounded=0;whiteSpace=wrap;html=1;align=center;fontSize=30;" parent="1" vertex="1">
                    <mxGeometry x="190" y="120" width="130" height="60" as="geometry"/>
                </mxCell>
                <mxCell id="10" value=".y" style="rounded=0;whiteSpace=wrap;html=1;align=center;fontSize=30;" parent="1" vertex="1">
                    <mxGeometry x="190" y="180" width="130" height="60" as="geometry"/>
                </mxCell>
                <mxCell id="11" value="" style="rounded=0;whiteSpace=wrap;html=1;align=left;fontSize=30;" parent="1" vertex="1">
                    <mxGeometry x="190" y="350" width="130" height="60" as="geometry"/>
                </mxCell>
                <mxCell id="13" value="" style="ellipse;whiteSpace=wrap;html=1;aspect=fixed;" parent="1" vertex="1">
                    <mxGeometry x="280" y="365" width="30" height="30" as="geometry"/>
                </mxCell>
                <mxCell id="14" value=".x" style="rounded=0;whiteSpace=wrap;html=1;align=center;fontSize=30;" parent="1" vertex="1">
                    <mxGeometry x="190" y="410" width="130" height="60" as="geometry"/>
                </mxCell>
                <mxCell id="15" value=".y" style="rounded=0;whiteSpace=wrap;html=1;align=center;fontSize=30;" parent="1" vertex="1">
                    <mxGeometry x="190" y="470" width="130" height="60" as="geometry"/>
                </mxCell>
                <mxCell id="16" value="&amp;nbsp; .p" style="rounded=0;whiteSpace=wrap;html=1;align=left;fontSize=30;" parent="1" vertex="1">
                    <mxGeometry x="490" y="60" width="110" height="60" as="geometry"/>
                </mxCell>
                <mxCell id="17" style="edgeStyle=orthogonalEdgeStyle;html=1;exitX=1;exitY=0.5;exitDx=0;exitDy=0;fontSize=30;endArrow=block;endFill=1;endSize=15;entryX=0;entryY=0.5;entryDx=0;entryDy=0;" parent="1" source="18" edge="1" target="24">
                    <mxGeometry relative="1" as="geometry">
                        <mxPoint x="670" y="89.95238095238096" as="targetPoint"/>
                        <Array as="points">
                            <mxPoint x="750" y="90"/>
                            <mxPoint x="750" y="225"/>
                        </Array>
                    </mxGeometry>
                </mxCell>
                <mxCell id="18" value="" style="ellipse;whiteSpace=wrap;html=1;aspect=fixed;" parent="1" vertex="1">
                    <mxGeometry x="560" y="75" width="30" height="30" as="geometry"/>
                </mxCell>
                <mxCell id="19" value="&amp;nbsp; .q" style="rounded=0;whiteSpace=wrap;html=1;align=left;fontSize=30;" parent="1" vertex="1">
                    <mxGeometry x="490" y="120" width="110" height="60" as="geometry"/>
                </mxCell>
                <mxCell id="20" style="edgeStyle=orthogonalEdgeStyle;html=1;exitX=1;exitY=0.5;exitDx=0;exitDy=0;fontSize=30;endArrow=block;endFill=1;endSize=15;" parent="1" source="21" edge="1">
                    <mxGeometry relative="1" as="geometry">
                        <mxPoint x="670" y="149.95238095238096" as="targetPoint"/>
                    </mxGeometry>
                </mxCell>
                <mxCell id="21" value="" style="ellipse;whiteSpace=wrap;html=1;aspect=fixed;" parent="1" vertex="1">
                    <mxGeometry x="560" y="135" width="30" height="30" as="geometry"/>
                </mxCell>
                <mxCell id="22" style="edgeStyle=none;html=1;exitX=1;exitY=0.5;exitDx=0;exitDy=0;entryX=0;entryY=0.5;entryDx=0;entryDy=0;fontSize=30;endArrow=block;endFill=1;endSize=15;" parent="1" source="3" target="6" edge="1">
                    <mxGeometry relative="1" as="geometry"/>
                </mxCell>
                <mxCell id="23" style="edgeStyle=none;html=1;exitX=1;exitY=0.5;exitDx=0;exitDy=0;entryX=0;entryY=0.5;entryDx=0;entryDy=0;fontSize=30;endArrow=block;endFill=1;endSize=15;" parent="1" source="5" target="11" edge="1">
                    <mxGeometry relative="1" as="geometry"/>
                </mxCell>
                <mxCell id="24" value="..." style="text;html=1;strokeColor=none;fillColor=none;align=center;verticalAlign=bottom;whiteSpace=wrap;rounded=0;fontSize=30;" parent="1" vertex="1">
                    <mxGeometry x="800" y="210" width="40" height="30" as="geometry"/>
                </mxCell>
                <mxCell id="25" value="..." style="text;html=1;strokeColor=none;fillColor=none;align=center;verticalAlign=bottom;whiteSpace=wrap;rounded=0;fontSize=30;" parent="1" vertex="1">
                    <mxGeometry x="670" y="135" width="40" height="30" as="geometry"/>
                </mxCell>
                <mxCell id="26" value="Method Lookup Table for MyClass" style="text;html=1;strokeColor=none;fillColor=none;align=center;verticalAlign=middle;whiteSpace=wrap;rounded=0;fontSize=15;" parent="1" vertex="1">
                    <mxGeometry x="455" y="-40" width="180" height="30" as="geometry"/>
                </mxCell>
                <mxCell id="28" value="Pointer to the object" style="text;html=1;strokeColor=none;fillColor=none;align=center;verticalAlign=middle;whiteSpace=wrap;rounded=0;fontSize=15;" parent="1" vertex="1">
                    <mxGeometry x="17.5" y="30" width="155" height="30" as="geometry"/>
                </mxCell>
                <mxCell id="29" value="Pointer to the object" style="text;html=1;strokeColor=none;fillColor=none;align=center;verticalAlign=middle;whiteSpace=wrap;rounded=0;fontSize=15;" parent="1" vertex="1">
                    <mxGeometry x="10" y="320" width="155" height="30" as="geometry"/>
                </mxCell>
                <mxCell id="33" value=".z" style="rounded=0;whiteSpace=wrap;html=1;align=center;fontSize=30;" parent="1" vertex="1">
                    <mxGeometry x="190" y="530" width="130" height="60" as="geometry"/>
                </mxCell>
                <mxCell id="34" value="&amp;nbsp; .p" style="rounded=0;whiteSpace=wrap;html=1;align=left;fontSize=30;" parent="1" vertex="1">
                    <mxGeometry x="500" y="350" width="110" height="60" as="geometry"/>
                </mxCell>
                <mxCell id="35" style="edgeStyle=orthogonalEdgeStyle;html=1;exitX=1;exitY=0.5;exitDx=0;exitDy=0;fontSize=30;endArrow=block;endFill=1;endSize=15;entryX=0;entryY=0.5;entryDx=0;entryDy=0;" parent="1" source="36" edge="1" target="24">
                    <mxGeometry relative="1" as="geometry">
                        <mxPoint x="680" y="379.95238095238096" as="targetPoint"/>
                        <Array as="points">
                            <mxPoint x="750" y="380"/>
                            <mxPoint x="750" y="225"/>
                        </Array>
                    </mxGeometry>
                </mxCell>
                <mxCell id="36" value="" style="ellipse;whiteSpace=wrap;html=1;aspect=fixed;" parent="1" vertex="1">
                    <mxGeometry x="570" y="365" width="30" height="30" as="geometry"/>
                </mxCell>
                <mxCell id="37" value="&amp;nbsp; .q" style="rounded=0;whiteSpace=wrap;html=1;align=left;fontSize=30;" parent="1" vertex="1">
                    <mxGeometry x="500" y="410" width="110" height="60" as="geometry"/>
                </mxCell>
                <mxCell id="38" style="edgeStyle=orthogonalEdgeStyle;html=1;exitX=1;exitY=0.5;exitDx=0;exitDy=0;fontSize=30;endArrow=block;endFill=1;endSize=15;" parent="1" source="39" edge="1">
                    <mxGeometry relative="1" as="geometry">
                        <mxPoint x="680" y="439.95238095238096" as="targetPoint"/>
                    </mxGeometry>
                </mxCell>
                <mxCell id="39" value="" style="ellipse;whiteSpace=wrap;html=1;aspect=fixed;" parent="1" vertex="1">
                    <mxGeometry x="570" y="425" width="30" height="30" as="geometry"/>
                </mxCell>
                <mxCell id="41" value="..." style="text;html=1;strokeColor=none;fillColor=none;align=center;verticalAlign=bottom;whiteSpace=wrap;rounded=0;fontSize=30;" parent="1" vertex="1">
                    <mxGeometry x="680" y="425" width="40" height="30" as="geometry"/>
                </mxCell>
                <mxCell id="42" value="Method Lookup Table for ChildClass" style="text;html=1;strokeColor=none;fillColor=none;align=center;verticalAlign=middle;whiteSpace=wrap;rounded=0;fontSize=15;" parent="1" vertex="1">
                    <mxGeometry x="465" y="550" width="180" height="30" as="geometry"/>
                </mxCell>
                <mxCell id="44" value="&amp;nbsp; .r" style="rounded=0;whiteSpace=wrap;html=1;align=left;fontSize=30;" parent="1" vertex="1">
                    <mxGeometry x="500" y="470" width="110" height="60" as="geometry"/>
                </mxCell>
                <mxCell id="45" style="edgeStyle=orthogonalEdgeStyle;html=1;exitX=1;exitY=0.5;exitDx=0;exitDy=0;fontSize=30;endArrow=block;endFill=1;endSize=15;" parent="1" source="46" edge="1">
                    <mxGeometry relative="1" as="geometry">
                        <mxPoint x="680" y="499.95238095238096" as="targetPoint"/>
                    </mxGeometry>
                </mxCell>
                <mxCell id="46" value="" style="ellipse;whiteSpace=wrap;html=1;aspect=fixed;" parent="1" vertex="1">
                    <mxGeometry x="570" y="485" width="30" height="30" as="geometry"/>
                </mxCell>
                <mxCell id="47" value="..." style="text;html=1;strokeColor=none;fillColor=none;align=center;verticalAlign=bottom;whiteSpace=wrap;rounded=0;fontSize=30;" parent="1" vertex="1">
                    <mxGeometry x="680" y="485" width="40" height="30" as="geometry"/>
                </mxCell>
                <mxCell id="48" value="Inherited" style="text;html=1;strokeColor=none;fillColor=none;align=center;verticalAlign=middle;whiteSpace=wrap;rounded=0;fontSize=15;" parent="1" vertex="1">
                    <mxGeometry x="610" y="350" width="80" height="30" as="geometry"/>
                </mxCell>
                <mxCell id="49" value="Overriden" style="text;html=1;strokeColor=none;fillColor=none;align=center;verticalAlign=middle;whiteSpace=wrap;rounded=0;fontSize=15;" parent="1" vertex="1">
                    <mxGeometry x="610" y="410" width="80" height="30" as="geometry"/>
                </mxCell>
                <mxCell id="50" value="Added" style="text;html=1;strokeColor=none;fillColor=none;align=center;verticalAlign=middle;whiteSpace=wrap;rounded=0;fontSize=15;" parent="1" vertex="1">
                    <mxGeometry x="610" y="470" width="60" height="30" as="geometry"/>
                </mxCell>
                <mxCell id="51" value="" style="rounded=0;whiteSpace=wrap;html=1;align=left;fontSize=30;" parent="1" vertex="1">
                    <mxGeometry x="500" y="290" width="110" height="60" as="geometry"/>
                </mxCell>
                <mxCell id="52" value="" style="ellipse;whiteSpace=wrap;html=1;aspect=fixed;" parent="1" vertex="1">
                    <mxGeometry x="560" y="305" width="30" height="30" as="geometry"/>
                </mxCell>
                <mxCell id="54" value="" style="rounded=0;whiteSpace=wrap;html=1;align=left;fontSize=30;" parent="1" vertex="1">
                    <mxGeometry x="490" width="110" height="60" as="geometry"/>
                </mxCell>
                <mxCell id="55" value="" style="ellipse;whiteSpace=wrap;html=1;aspect=fixed;" parent="1" vertex="1">
                    <mxGeometry x="550" y="15" width="30" height="30" as="geometry"/>
                </mxCell>
                <mxCell id="56" style="edgeStyle=orthogonalEdgeStyle;html=1;exitX=0.5;exitY=0;exitDx=0;exitDy=0;fontSize=30;endArrow=block;endFill=1;endSize=15;entryX=0;entryY=0.5;entryDx=0;entryDy=0;jumpStyle=arc;jumpSize=15;" parent="1" source="52" target="54" edge="1">
                    <mxGeometry relative="1" as="geometry">
                        <mxPoint x="680" y="159.95238095238074" as="targetPoint"/>
                        <mxPoint x="600" y="160" as="sourcePoint"/>
                        <Array as="points">
                            <mxPoint x="575" y="230"/>
                            <mxPoint x="440" y="230"/>
                            <mxPoint x="440" y="30"/>
                        </Array>
                    </mxGeometry>
                </mxCell>
                <mxCell id="58" style="edgeStyle=none;html=1;exitX=1;exitY=0.5;exitDx=0;exitDy=0;entryX=0;entryY=0.5;entryDx=0;entryDy=0;fontSize=30;endArrow=block;endFill=1;endSize=15;" edge="1" parent="1" source="11" target="34">
                    <mxGeometry relative="1" as="geometry">
                        <mxPoint x="319.9999999999932" y="100" as="sourcePoint"/>
                        <mxPoint x="500" y="100" as="targetPoint"/>
                    </mxGeometry>
                </mxCell>
                <mxCell id="61" style="edgeStyle=none;html=1;exitX=1;exitY=0.5;exitDx=0;exitDy=0;fontSize=30;endArrow=block;endFill=1;endSize=15;entryX=0.5;entryY=1;entryDx=0;entryDy=0;" edge="1" parent="1" source="55" target="62">
                    <mxGeometry relative="1" as="geometry">
                        <mxPoint x="700" y="-1" as="sourcePoint"/>
                        <mxPoint x="680" y="-50" as="targetPoint"/>
                        <Array as="points">
                            <mxPoint x="680" y="30"/>
                        </Array>
                    </mxGeometry>
                </mxCell>
                <mxCell id="62" value="To Super Class MLT" style="text;html=1;strokeColor=none;fillColor=none;align=center;verticalAlign=middle;whiteSpace=wrap;rounded=0;fontSize=15;" vertex="1" parent="1">
                    <mxGeometry x="590" y="-110" width="180" height="30" as="geometry"/>
                </mxCell>
            </root>
        </mxGraphModel>
    </diagram>
</mxfile>